# xmcd
# 
# Track frame offsets:
#     150
#     18042
#     34335
#     53397
#     82317
# 
# Disc length: 1382
# 
# Revision: 5
# Processed by: cddbd v1.5.2PL0 Copyright (c) Steve Scherf et al.
# Submitted via: fre:ac v1.1beta1pre5
# 
DISCID=32056405
DTITLE=Queen - Hot Space (Bonus EP)
DYEAR=1982
DGENRE=Rock
TTITLE0=Staying Power (Live at Milton Keynes Bowl, June 1982)
TTITLE1=Soul Brother (B-Side)
TTITLE2=Back Chat (Single Remix)
TTITLE3=Action this Day (Live in Tokyo, November 1982)
TTITLE4=Calling All Girls (Live in Tokyo, November 1982)
EXTD=
EXTT0=
EXTT1=
EXTT2=
EXTT3=
EXTT4=
PLAYORDER=
